<svg height="39.841839mm" viewBox="0 0 152.47562 141.17187" width="43.032009mm" xmlns="http://www.w3.org/2000/svg" aria-labelledby="label" role="img"><title id="label">Bamboo Relay</title><g transform="translate(4.80924 -13.204841)"><path id="path948" d="m123.31576 53.024177c.01462-.009766.0245-.019531.03912-.029297-4.04787-1.61621-8.54012-2.436523-13.49125-2.436523-12.538997 0-22.006871 4.960938-28.393496 14.873046h-1.07425c.327125-4.121093.57125-7.700195.751875-10.795898-1.6015.122071-3.208.195312-4.81925.195312-4.609375 0-9.253-.502929-13.86725-1.523437-5.25875-1.162109-10.2685-2.954102-14.960875-5.3125l3.847625 60.53223c10.473625 2.98828 21.48925 1.00586 30.151375-4.8291-.00975-.51759-.02925-1.01075-.02925-1.54297v-2.954105c.117125-9.555663 1.7285-16.40625 4.833875-20.556638 3.1055-4.155276 8.03225-6.225589 14.785251-6.225589 2.84662 0 5.40037.600587 7.66112 1.796875 2.583-8.334961 7.64163-15.776367 14.56538-21.191406" fill="#f4a061"/><g fill="#98c483"><path d="m63.916384 46.74488c5.835 1.289062 11.733375 1.645508 17.524375 1.118165.014625-.800782.029375-1.5625.029375-2.231446v-32.426758h-36.17675l1.704 26.835937c5.175875 3.085938 10.859375 5.366212 16.919 6.704102"/><path d="m137.63213 64.40113c-2.28025-3.144531-4.86812-5.742188-7.74412-7.8125-7.96875 5.22461-13.53513 13.417969-15.53713 22.636717.1465.2002.29788.375975.4395.581063 3.34475 4.92675 5.0195 12.319325 5.0195 22.17285 0 9.84863-1.66012 17.36327-4.9755 22.52441-3.31062 5.16601-7.77837 7.74903-13.38875 7.74903-6.928621 0-11.992121-2.32912-15.185496-6.98732-2.19725-3.20312-3.618125-7.89062-4.306625-13.98437-6.318375 3.47656-13.462 5.35645-20.756875 5.35645-3.125 0-6.27925-.35645-9.399375-1.06445l2.3535 37.0166h20.869125l4.565375-11.02051h1.884875c6.689375 8.54003 15.912999 12.80761 27.680626 12.80761 11.87987 0 21.27437-4.53613 28.16887-13.61328 6.8995-9.07715 10.34675-21.88476 10.34675-38.42773 0-16.064453-3.34475-28.710937-10.03425-37.93457"/><path d="m4.2386345 54.977302c11.3037495.009765 21.9433745-2.900391 32.0604995-7.714844 3.38875-1.616211 6.464875-3.901367 9.6875-5.878906 1.2305-.756836 1.55275-1.811524 1.435625-3.251953-.776375-9.282227-5.586-16.318359-12.290125-22.319335-.2685-.244142-.69325-.322267-1.19625-.546875-.034125.581053-.126875.952147-.058625 1.284178.99125 4.990235 2.334 9.848634 5.337 14.082032.42475.610352.6445 1.367187.961875 2.050781l-.38575.307617c-10.815375-5.473632-22.265625-7.06543-34.1014997-6.333007-.0635.332031-.127.664062-.1905.996093 4.6191247 2.163087 9.1601247 4.526368 13.8818747 6.420899 4.711875 1.894531 9.609375 3.315429 14.42375 4.946289-14.6875.844726-28.0369997 4.580078-38.6132494 15.566406 3.042.317383 6.0449999.385743 9.0478749.390625"/></g></g></svg>