<svg width="40" height="40" viewBox="0 0 40 40" fill="none" xmlns="http://www.w3.org/2000/svg">
<path d="M39.0648 0.224168C38.9237 0.161812 24.2914 -1.87257 9.82701 7.629C0.847789 13.5412 -0.342326 22.1892 0.0696345 27.9572C21.1063 25.5799 38.588 0.913987 39.0648 0.224168ZM1.49626 34.3643C3.30431 37.6147 16.9715 44.9844 29.0709 34.8203C41.1704 24.6562 40.1557 6.16362 39.0648 0.224168C38.6834 1.08547 25.4739 30.6424 1.49626 34.3605" fill="#8BD353"/>
<path d="M39.0648 0.224302C38.9237 0.165843 24.2914 -1.87243 9.82701 7.62914C0.847789 13.5413 -0.342326 22.1894 0.0696346 27.9535C21.1063 25.58 38.588 0.914121 39.0648 0.224302Z" fill="#16B157"/>
</svg>
